<?xml version="1.0" encoding="iso-8859-1"?>
<!-- Generator: Adobe Illustrator 16.0.0, SVG Export Plug-In . SVG Version: 6.00 Build 0)  -->
<!DOCTYPE svg PUBLIC "-//W3C//DTD SVG 1.1//EN" "http://www.w3.org/Graphics/SVG/1.1/DTD/svg11.dtd">
<svg version="1.1" id="Capa_1" xmlns="http://www.w3.org/2000/svg" xmlns:xlink="http://www.w3.org/1999/xlink" x="0px" y="0px"
	 width="45px" height="45px" viewBox="0 0 45 45" style="enable-background:new 0 0 45 45;" xml:space="preserve">
<g>
	<path d="M45,15.625v13.75c0,1.934-1.566,3.5-3.5,3.5h-8.625V41.5c0,1.934-1.566,3.5-3.5,3.5h-13.75c-1.934,0-3.5-1.566-3.5-3.5
		v-8.625H3.5c-1.934,0-3.5-1.566-3.5-3.5v-13.75c0-1.932,1.566-3.5,3.5-3.5h8.625V3.5c0-1.932,1.566-3.5,3.5-3.5h13.75
		c1.934,0,3.5,1.568,3.5,3.5v8.625H41.5C43.434,12.125,45,13.693,45,15.625z"/>
</g>
<g>
</g>
<g>
</g>
<g>
</g>
<g>
</g>
<g>
</g>
<g>
</g>
<g>
</g>
<g>
</g>
<g>
</g>
<g>
</g>
<g>
</g>
<g>
</g>
<g>
</g>
<g>
</g>
<g>
</g>
</svg>
